<svg width="32" height="32" viewBox="0 0 32 32" fill="none" xmlns="http://www.w3.org/2000/svg">
<path d="M16 24.6668L12 22.6668M12 22.6668L4 26.6668V9.3335L12 5.3335M12 22.6668V5.3335M12 5.3335L20 9.3335M20 9.3335L28 5.3335V15.3335M20 9.3335V16.6668M25.3333 24.0002V24.0135M28.1613 26.8282C28.7209 26.2688 29.1019 25.5561 29.2564 24.7801C29.4108 24.0042 29.3317 23.1998 29.029 22.4689C28.7263 21.7379 28.2136 21.1131 27.5557 20.6735C26.8979 20.2339 26.1245 19.9993 25.3333 19.9993C24.5422 19.9993 23.7687 20.2339 23.1109 20.6735C22.4531 21.1131 21.9404 21.7379 21.6377 22.4689C21.335 23.1998 21.2558 24.0042 21.4103 24.7801C21.5647 25.5561 21.9458 26.2688 22.5053 26.8282C23.0627 27.3864 24.0053 28.2215 25.3333 29.3335C26.7351 28.1468 27.6778 27.3117 28.1613 26.8282Z" stroke="#00408E" stroke-width="2" stroke-linecap="round" stroke-linejoin="round"/>
</svg>
