<svg width="32" height="32" viewBox="0 0 32 32" fill="none" xmlns="http://www.w3.org/2000/svg">
<path d="M14.6666 28H7.99998C7.29274 28 6.61446 27.719 6.11436 27.219C5.61426 26.7189 5.33331 26.0406 5.33331 25.3333V9.33333C5.33331 8.62609 5.61426 7.94781 6.11436 7.44772C6.61446 6.94762 7.29274 6.66667 7.99998 6.66667H24C24.7072 6.66667 25.3855 6.94762 25.8856 7.44772C26.3857 7.94781 26.6666 8.62609 26.6666 9.33333V14M21.3333 4V9.33333M10.6666 4V9.33333M5.33331 14.6667H20" stroke="#00408E" stroke-width="2" stroke-linecap="round" stroke-linejoin="round"/>
<path d="M23.7333 27.756L20.8373 29.2733C20.7513 29.318 20.6547 29.338 20.558 29.331C20.4614 29.3239 20.3686 29.2902 20.2901 29.2335C20.2115 29.1768 20.1503 29.0993 20.1132 29.0098C20.0761 28.9203 20.0646 28.8223 20.08 28.7266L20.6333 25.512L18.2906 23.236C18.2207 23.1684 18.1712 23.0825 18.1477 22.9881C18.1243 22.8937 18.1279 22.7946 18.158 22.7022C18.1882 22.6097 18.2438 22.5276 18.3184 22.4652C18.393 22.4028 18.4836 22.3626 18.58 22.3493L21.8173 21.88L23.2653 18.956C23.3086 18.8689 23.3753 18.7956 23.458 18.7444C23.5407 18.6932 23.636 18.666 23.7333 18.666C23.8305 18.666 23.9259 18.6932 24.0086 18.7444C24.0912 18.7956 24.158 18.8689 24.2013 18.956L25.6493 21.88L28.8866 22.3493C28.9827 22.3631 29.0729 22.4035 29.1472 22.466C29.2215 22.5284 29.2768 22.6104 29.3069 22.7027C29.337 22.7949 29.3407 22.8938 29.3176 22.988C29.2944 23.0823 29.2454 23.1682 29.176 23.236L26.8333 25.512L27.3853 28.7253C27.4019 28.8211 27.3912 28.9197 27.3546 29.0098C27.318 29.0998 27.2568 29.1778 27.1781 29.2349C27.0993 29.292 27.0062 29.3258 26.9092 29.3326C26.8122 29.3394 26.7152 29.3189 26.6293 29.2733L23.7333 27.756Z" stroke="#00408E" stroke-width="2" stroke-linecap="round" stroke-linejoin="round"/>
</svg>
