<svg width="32" height="32" viewBox="0 0 32 32" fill="none" xmlns="http://www.w3.org/2000/svg">
<path d="M5.33331 25.3334V13.3334C5.33331 12.9112 5.42798 12.5112 5.61731 12.1334C5.80665 11.7556 6.06754 11.4445 6.39998 11.2001L14.4 5.20008C14.8666 4.84453 15.4 4.66675 16 4.66675C16.6 4.66675 17.1333 4.84453 17.6 5.20008L25.6 11.2001C25.9333 11.4445 26.1946 11.7556 26.384 12.1334C26.5733 12.5112 26.6675 12.9112 26.6666 13.3334V25.3334C26.6666 26.0667 26.4053 26.6947 25.8826 27.2174C25.36 27.7401 24.7324 28.001 24 28.0001H20C19.6222 28.0001 19.3058 27.8721 19.0506 27.6161C18.7955 27.3601 18.6675 27.0436 18.6666 26.6667V20.0001C18.6666 19.6223 18.5386 19.3059 18.2826 19.0507C18.0266 18.7956 17.7102 18.6676 17.3333 18.6667H14.6666C14.2889 18.6667 13.9724 18.7947 13.7173 19.0507C13.4622 19.3067 13.3342 19.6232 13.3333 20.0001V26.6667C13.3333 27.0445 13.2053 27.3614 12.9493 27.6174C12.6933 27.8734 12.3769 28.001 12 28.0001H7.99998C7.26665 28.0001 6.63909 27.7392 6.11731 27.2174C5.59553 26.6956 5.3342 26.0676 5.33331 25.3334Z" stroke="#00408E" stroke-width="2"/>
</svg>
