<svg width="18" height="18" viewBox="0 0 18 18" fill="none" xmlns="http://www.w3.org/2000/svg">
<path d="M9.5 7.5C9.87025 7.5 10.2369 7.4321 10.579 7.30018C10.921 7.16827 11.2318 6.97491 11.4936 6.73116C11.7555 6.4874 11.9631 6.19802 12.1048 5.87954C12.2465 5.56106 12.3194 5.21972 12.3194 4.875C12.3194 4.53028 12.2465 4.18894 12.1048 3.87046C11.9631 3.55198 11.7555 3.2626 11.4936 3.01884C11.2318 2.77509 10.921 2.58173 10.579 2.44982C10.2369 2.3179 9.87025 2.25 9.5 2.25C8.75224 2.25 8.0351 2.52656 7.50635 3.01884C6.9776 3.51113 6.68056 4.17881 6.68056 4.875C6.68056 5.57119 6.9776 6.23887 7.50635 6.73116C8.0351 7.22344 8.75224 7.5 9.5 7.5ZM2.25 15.3V15.75H16.75V15.3C16.75 13.62 16.75 12.78 16.3988 12.138C16.0899 11.5735 15.5969 11.1146 14.9907 10.827C14.3011 10.5 13.3989 10.5 11.5944 10.5H7.40556C5.60111 10.5 4.69889 10.5 4.00933 10.827C3.40306 11.1146 2.91014 11.5735 2.60122 12.138C2.25 12.78 2.25 13.62 2.25 15.3Z" fill="#00408E" stroke="#00408E" stroke-width="2" stroke-linecap="round" stroke-linejoin="round"/>
</svg>
