<svg width="32" height="32" viewBox="0 0 32 32" fill="none" xmlns="http://www.w3.org/2000/svg">
<path d="M16 24.6666L12 22.6666M12 22.6666L4 26.6666V9.33325L12 5.33325M12 22.6666V5.33325M12 5.33325L20 9.33325M20 9.33325L28 5.33325V15.3333M20 9.33325V16.6666M25.3333 23.9999V24.0133M28.1613 26.8279C28.7209 26.2686 29.1019 25.5558 29.2564 24.7799C29.4108 24.0039 29.3317 23.1996 29.029 22.4686C28.7263 21.7376 28.2136 21.1128 27.5557 20.6733C26.8979 20.2337 26.1245 19.9991 25.3333 19.9991C24.5422 19.9991 23.7687 20.2337 23.1109 20.6733C22.4531 21.1128 21.9404 21.7376 21.6377 22.4686C21.335 23.1996 21.2558 24.0039 21.4103 24.7799C21.5647 25.5558 21.9458 26.2686 22.5053 26.8279C23.0627 27.3861 24.0053 28.2213 25.3333 29.3333C26.7351 28.1466 27.6778 27.3115 28.1613 26.8279Z" stroke="#111111" stroke-width="2" stroke-linecap="round" stroke-linejoin="round"/>
</svg>
