<svg width="18" height="18" viewBox="0 0 18 18" fill="none" xmlns="http://www.w3.org/2000/svg">
<path d="M9.5 7.88889C9.78088 7.88889 10.059 7.83859 10.3185 7.74088C10.578 7.64316 10.8138 7.49993 11.0124 7.31937C11.211 7.13882 11.3686 6.92446 11.4761 6.68855C11.5836 6.45264 11.6389 6.19979 11.6389 5.94444C11.6389 5.6891 11.5836 5.43625 11.4761 5.20034C11.3686 4.96443 11.211 4.75007 11.0124 4.56951C10.8138 4.38896 10.578 4.24573 10.3185 4.14801C10.059 4.05029 9.78088 4 9.5 4C8.93273 4 8.3887 4.20486 7.98758 4.56951C7.58646 4.93417 7.36111 5.42875 7.36111 5.94444C7.36111 6.46014 7.58646 6.95472 7.98758 7.31937C8.3887 7.68403 8.93273 7.88889 9.5 7.88889ZM4 13.6667V14H15V13.6667C15 12.4222 15 11.8 14.7336 11.3244C14.4992 10.9063 14.1253 10.5664 13.6653 10.3533C13.1422 10.1111 12.4578 10.1111 11.0889 10.1111H7.91111C6.54222 10.1111 5.85778 10.1111 5.33467 10.3533C4.87474 10.5664 4.5008 10.9063 4.26644 11.3244C4 11.8 4 12.4222 4 13.6667Z" fill="#DDDDDD" stroke="#DDDDDD" stroke-width="2" stroke-linecap="round" stroke-linejoin="round"/>
</svg>
