<svg width="28" height="28" viewBox="0 0 28 28" fill="none" xmlns="http://www.w3.org/2000/svg">
<path d="M15.1666 6.99992C15.1666 6.6905 15.0437 6.39375 14.8249 6.17496C14.6061 5.95617 14.3094 5.83325 14 5.83325C13.6906 5.83325 13.3938 5.95617 13.175 6.17496C12.9562 6.39375 12.8333 6.6905 12.8333 6.99992V12.8333H6.99998C6.69056 12.8333 6.39381 12.9562 6.17502 13.175C5.95623 13.3938 5.83331 13.6905 5.83331 13.9999C5.83331 14.3093 5.95623 14.6061 6.17502 14.8249C6.39381 15.0437 6.69056 15.1666 6.99998 15.1666H12.8333V20.9999C12.8333 21.3093 12.9562 21.6061 13.175 21.8249C13.3938 22.0437 13.6906 22.1666 14 22.1666C14.3094 22.1666 14.6061 22.0437 14.8249 21.8249C15.0437 21.6061 15.1666 21.3093 15.1666 20.9999V15.1666H21C21.3094 15.1666 21.6061 15.0437 21.8249 14.8249C22.0437 14.6061 22.1666 14.3093 22.1666 13.9999C22.1666 13.6905 22.0437 13.3938 21.8249 13.175C21.6061 12.9562 21.3094 12.8333 21 12.8333H15.1666V6.99992Z" fill="white"/>
</svg>
