<svg width="18" height="18" viewBox="0 0 18 18" fill="none" xmlns="http://www.w3.org/2000/svg">
<g clip-path="url(#clip0_385_1912)">
<path d="M9 3C7.81331 3 6.65327 3.35189 5.66658 4.01118C4.67988 4.67047 3.91085 5.60754 3.45672 6.7039C3.0026 7.80026 2.88378 9.00666 3.11529 10.1705C3.3468 11.3344 3.91824 12.4035 4.75736 13.2426C5.59647 14.0818 6.66557 14.6532 7.82946 14.8847C8.99334 15.1162 10.1997 14.9974 11.2961 14.5433C12.3925 14.0892 13.3295 13.3201 13.9888 12.3334C14.6481 11.3467 15 10.1867 15 9C15 7.4087 14.3679 5.88258 13.2426 4.75736C12.1174 3.63214 10.5913 3 9 3ZM9 14C8.01109 14 7.04439 13.7068 6.22215 13.1573C5.3999 12.6079 4.75904 11.827 4.3806 10.9134C4.00216 9.99979 3.90315 8.99445 4.09607 8.02455C4.289 7.05464 4.7652 6.16373 5.46447 5.46447C6.16373 4.7652 7.05464 4.289 8.02455 4.09607C8.99445 3.90315 9.99979 4.00216 10.9134 4.3806C11.827 4.75904 12.6079 5.3999 13.1573 6.22215C13.7068 7.04439 14 8.01109 14 9C14 9.65661 13.8707 10.3068 13.6194 10.9134C13.3681 11.52 12.9998 12.0712 12.5355 12.5355C12.0712 12.9998 11.52 13.3681 10.9134 13.6194C10.3068 13.8707 9.65661 14 9 14Z" fill="#888888"/>
<path d="M9 10.0354C8.82761 10.0354 8.66228 9.96687 8.54038 9.84497C8.41848 9.72307 8.35 9.55774 8.35 9.38535V6.38535C8.35 6.21296 8.41848 6.04763 8.54038 5.92573C8.66228 5.80383 8.82761 5.73535 9 5.73535C9.17239 5.73535 9.33772 5.80383 9.45962 5.92573C9.58152 6.04763 9.65 6.21296 9.65 6.38535V9.38535C9.65 9.55774 9.58152 9.72307 9.45962 9.84497C9.33772 9.96687 9.17239 10.0354 9 10.0354Z" fill="#888888"/>
<path d="M8.975 12.2598C9.38921 12.2598 9.725 11.924 9.725 11.5098C9.725 11.0956 9.38921 10.7598 8.975 10.7598C8.56079 10.7598 8.225 11.0956 8.225 11.5098C8.225 11.924 8.56079 12.2598 8.975 12.2598Z" fill="#888888"/>
</g>
<defs>
<clipPath id="clip0_385_1912">
<rect width="18" height="18" fill="white"/>
</clipPath>
</defs>
</svg>
