<svg width="50" height="46" viewBox="0 0 50 46" fill="none" xmlns="http://www.w3.org/2000/svg">
<path d="M25 24.8333C25.9576 24.8333 26.9057 24.6447 27.7904 24.2783C28.6751 23.9118 29.4789 23.3747 30.156 22.6977C30.8331 22.0206 31.3702 21.2167 31.7366 20.3321C32.1031 19.4474 32.2917 18.4992 32.2917 17.5417C32.2917 16.5841 32.1031 15.6359 31.7366 14.7513C31.3702 13.8666 30.8331 13.0628 30.156 12.3857C29.4789 11.7086 28.6751 11.1715 27.7904 10.805C26.9057 10.4386 25.9576 10.25 25 10.25C23.0661 10.25 21.2115 11.0182 19.844 12.3857C18.4766 13.7531 17.7083 15.6078 17.7083 17.5417C17.7083 19.4755 18.4766 21.3302 19.844 22.6977C21.2115 24.0651 23.0661 24.8333 25 24.8333ZM6.25 46.5V47.75H43.75V46.5C43.75 41.8333 43.75 39.5 42.8417 37.7167C42.0427 36.1487 40.7679 34.8739 39.2 34.075C37.4167 33.1667 35.0833 33.1667 30.4167 33.1667H19.5833C14.9167 33.1667 12.5833 33.1667 10.8 34.075C9.23205 34.8739 7.95727 36.1487 7.15833 37.7167C6.25 39.5 6.25 41.8333 6.25 46.5Z" fill="#00408E" stroke="#00408E" stroke-width="2" stroke-linecap="round" stroke-linejoin="round"/>
</svg>
