<svg xmlns="http://www.w3.org/2000/svg" width="95" height="98" viewBox="0 0 95 98" fill="none"><metadata><rdf:RDF xmlns:rdf="http://www.w3.org/1999/02/22-rdf-syntax-ns#" xmlns:dc="http://purl.org/dc/elements/1.1/"><rdf:Description><dc:creator>RealFaviconGenerator</dc:creator><dc:source>https://realfavicongenerator.net</dc:source></rdf:Description></rdf:RDF></metadata><g clip-path="url(#clip0_124_2)">
<path d="M66.84 0H27.64C12.3748 0 0 12.3748 0 27.64V69.84C0 85.1051 12.3748 97.48 27.64 97.48H66.84C82.1051 97.48 94.48 85.1051 94.48 69.84V27.64C94.48 12.3748 82.1051 0 66.84 0Z" fill="#00408E"></path>
<path d="M49.43 77.02L54.89 88.17C54.89 88.17 34.79 84.37 28.57 66.85C27.76 64.56 29.13 62.06 31.5 61.52L61.23 54.73L42.38 63.05C39.39 64.37 37.52 67.55 38.15 70.76C38.78 73.97 41.38 76.98 49.42 77.03L49.43 77.02Z" fill="white"></path>
<path d="M44.17 19.98L37.83 9.31C37.83 9.31 58.17 11.46 65.79 28.42C66.79 30.64 65.62 33.24 63.3 33.97L34.21 43.15L52.35 33.31C55.21 31.76 56.79 28.44 55.9 25.3C55.04 22.26 52.17 19.37 44.16 19.96L44.17 19.98Z" fill="white"></path>
<path d="M47 53C49.2091 53 51 51.2091 51 49C51 46.7909 49.2091 45 47 45C44.7909 45 43 46.7909 43 49C43 51.2091 44.7909 53 47 53Z" fill="white"></path>
</g><defs>
<clipPath id="clip0_124_2">
<rect width="94.48" height="97.48" fill="white"></rect>
</clipPath>
</defs></svg>