<svg width="77" height="77" viewBox="0 0 77 77" fill="none" xmlns="http://www.w3.org/2000/svg">
<path d="M40.1123 60.6067L44.3165 69.1922C44.3165 69.1922 28.8395 66.2662 24.0501 52.7758C23.4264 51.0125 24.4813 49.0875 26.3062 48.6717L49.1983 43.4434L34.6838 49.8498C32.3815 50.8662 30.9416 53.3148 31.4267 55.7865C31.9118 58.2582 33.9138 60.5759 40.1046 60.6144L40.1123 60.6067Z" fill="black"/>
<path d="M36.0621 16.6859L31.1803 8.46997C31.1803 8.46997 46.8421 10.1255 52.7095 23.1847C53.4795 24.8941 52.5786 26.8961 50.7922 27.4582L28.3929 34.5268L42.3607 26.95C44.5629 25.7565 45.7795 23.2001 45.0942 20.7823C44.432 18.4415 42.2221 16.2162 36.0544 16.6705L36.0621 16.6859Z" fill="black"/>
<path d="M38.195 41.6801C40.1087 41.6801 41.66 40.1288 41.66 38.2151C41.66 36.3015 40.1087 34.7501 38.195 34.7501C36.2814 34.7501 34.73 36.3015 34.73 38.2151C34.73 40.1288 36.2814 41.6801 38.195 41.6801Z" fill="black"/>
</svg>
