<svg width="30" height="30" viewBox="0 0 30 30" fill="none" xmlns="http://www.w3.org/2000/svg">
<g clip-path="url(#clip0_307_1398)">
<g filter="url(#filter0_d_307_1398)">
<path d="M15 2.5C17.9837 2.5 20.8452 3.68526 22.9549 5.79505C25.0647 7.90483 26.25 10.7663 26.25 13.75C26.25 17.5925 24.155 20.7375 21.9475 22.9938C20.8446 24.1088 19.6412 25.1198 18.3525 26.0138L17.82 26.3762L17.57 26.5425L17.0988 26.8425L16.6788 27.0988L16.1587 27.4012C15.8058 27.6027 15.4064 27.7087 15 27.7087C14.5936 27.7087 14.1942 27.6027 13.8412 27.4012L13.3212 27.0988L12.6712 26.6987L12.4312 26.5425L11.9187 26.2013C10.5285 25.2607 9.23363 24.1864 8.0525 22.9938C5.845 20.7363 3.75 17.5925 3.75 13.75C3.75 10.7663 4.93526 7.90483 7.04505 5.79505C9.15483 3.68526 12.0163 2.5 15 2.5Z" fill="#00408E"/>
</g>
<path d="M15.3971 19.3655L16.4842 21.5493C16.4842 21.5493 12.4822 20.8051 11.2438 17.3737C11.0825 16.9252 11.3553 16.4356 11.8271 16.3298L17.7465 15L13.9934 16.6295C13.3981 16.888 13.0257 17.5108 13.1512 18.1395C13.2766 18.7682 13.7943 19.3577 15.3951 19.3675L15.3971 19.3655Z" fill="white"/>
<path d="M14.2959 8.04718L12.9958 5.91553C12.9958 5.91553 17.1666 6.34506 18.7292 9.73333C18.9342 10.1768 18.6943 10.6963 18.2186 10.8421L12.2535 12.6761L15.9732 10.7103C16.5597 10.4006 16.8837 9.73732 16.7012 9.11001C16.5248 8.50268 15.9363 7.92532 14.2938 8.04319L14.2959 8.04718Z" fill="white"/>
<path d="M14.8944 14.3661C15.3027 14.3661 15.6338 14.035 15.6338 13.6266C15.6338 13.2183 15.3027 12.8872 14.8944 12.8872C14.486 12.8872 14.1549 13.2183 14.1549 13.6266C14.1549 14.035 14.486 14.3661 14.8944 14.3661Z" fill="white"/>
<circle cx="24" cy="6" r="4" fill="#25FF0D"/>
</g>
<defs>
<filter id="filter0_d_307_1398" x="-0.25" y="2.5" width="30.5" height="33.2085" filterUnits="userSpaceOnUse" color-interpolation-filters="sRGB">
<feFlood flood-opacity="0" result="BackgroundImageFix"/>
<feColorMatrix in="SourceAlpha" type="matrix" values="0 0 0 0 0 0 0 0 0 0 0 0 0 0 0 0 0 0 127 0" result="hardAlpha"/>
<feOffset dy="4"/>
<feGaussianBlur stdDeviation="2"/>
<feComposite in2="hardAlpha" operator="out"/>
<feColorMatrix type="matrix" values="0 0 0 0 0 0 0 0 0 0 0 0 0 0 0 0 0 0 0.16 0"/>
<feBlend mode="normal" in2="BackgroundImageFix" result="effect1_dropShadow_307_1398"/>
<feBlend mode="normal" in="SourceGraphic" in2="effect1_dropShadow_307_1398" result="shape"/>
</filter>
<clipPath id="clip0_307_1398">
<rect width="30" height="30" fill="white"/>
</clipPath>
</defs>
</svg>
