<svg width="34" height="34" viewBox="0 0 34 34" fill="none" xmlns="http://www.w3.org/2000/svg">
<g clip-path="url(#clip0_675_1079)">
<path d="M9.30457 12.7055L13.7645 27.7092C13.9414 28.3004 14.2964 28.8227 14.781 29.2048C15.2656 29.587 15.8563 29.8103 16.4725 29.8445C17.0887 29.8786 17.7005 29.7219 18.2244 29.3957C18.7482 29.0694 19.1588 28.5896 19.4 28.0215L21.6792 22.5991C21.7367 22.4706 21.8193 22.3549 21.9221 22.2587C22.0248 22.1624 22.1457 22.0876 22.2777 22.0386L27.8379 20.1199C28.3102 19.9561 28.7341 19.6769 29.0711 19.3076C29.4081 18.9384 29.6474 18.4907 29.7674 18.0054C29.8873 17.5201 29.8841 17.0125 29.758 16.5288C29.6319 16.045 29.3869 15.6004 29.0453 15.2355C28.7219 14.8969 28.3268 14.6349 27.889 14.4688L13.2101 9.0345C12.6883 8.84278 12.1236 8.7998 11.5788 8.91037C11.034 9.02093 10.5306 9.28069 10.1249 9.66065C9.71911 10.0406 9.42691 10.5259 9.28085 11.0622C9.1348 11.5986 9.14064 12.165 9.29773 12.6982L9.30457 12.7055ZM12.5187 10.9149L27.1976 16.3492C27.3877 16.4231 27.5506 16.5533 27.6646 16.7224C27.7786 16.8915 27.8382 17.0914 27.8353 17.2953C27.8325 17.4992 27.7674 17.6974 27.6487 17.8632C27.5301 18.0291 27.3635 18.1547 27.1714 18.2232L21.6181 20.1492C21.5446 20.1757 21.4727 20.2064 21.4029 20.2412L16.6934 15.212C16.5121 15.0184 16.2613 14.9048 15.9962 14.8961C15.7312 14.8874 15.4735 14.9843 15.2799 15.1656C15.0863 15.3469 14.9727 15.5977 14.964 15.8627C14.9553 16.1278 15.0522 16.3855 15.2335 16.5791L19.943 21.6083C19.9037 21.6757 19.8683 21.7454 19.8371 21.817L17.551 27.2321C17.4701 27.4193 17.3338 27.5772 17.1605 27.6847C16.9872 27.7923 16.7852 27.8442 16.5816 27.8337C16.3779 27.8232 16.1823 27.7506 16.0211 27.6258C15.8598 27.501 15.7406 27.3298 15.6794 27.1353L11.2195 12.1316C11.1688 11.9547 11.1679 11.7672 11.2169 11.5898C11.2659 11.4124 11.3629 11.252 11.4972 11.1262C11.6316 11.0004 11.798 10.9141 11.9783 10.8768C12.1585 10.8396 12.3455 10.8527 12.5187 10.9149Z" fill="white"/>
</g>
<defs>
<clipPath id="clip0_675_1079">
<rect width="24" height="24" fill="white" transform="translate(16.4046 33.9229) rotate(-133.12)"/>
</clipPath>
</defs>
</svg>
