<svg width="7" height="16" viewBox="0 0 7 16" fill="none" xmlns="http://www.w3.org/2000/svg">
<path d="M3.66807 13.8656L4.61752 15.9996C4.61752 15.9996 1.12229 15.2723 0.0406776 11.9192C-0.100175 11.4809 0.138057 11.0025 0.550182 10.8991L5.72 9.59961L2.44213 11.192C1.92219 11.4446 1.59701 12.0532 1.70657 12.6676C1.81612 13.2819 2.26824 13.858 3.66633 13.8676L3.66807 13.8656Z" fill="white"/>
<path d="M2.66159 2.21976L1.62938 0C1.62938 0 4.94092 0.447282 6.18152 3.9756C6.34433 4.43745 6.15384 4.97835 5.77613 5.13021L1.04001 7.04L3.99337 4.99291C4.459 4.67045 4.71624 3.97976 4.57134 3.32652C4.43132 2.69409 3.96406 2.09286 2.65996 2.2156L2.66159 2.21976Z" fill="white"/>
<path d="M3.12001 8.95969C3.40719 8.95969 3.64001 8.67315 3.64001 8.31969C3.64001 7.96623 3.40719 7.67969 3.12001 7.67969C2.83282 7.67969 2.60001 7.96623 2.60001 8.31969C2.60001 8.67315 2.83282 8.95969 3.12001 8.95969Z" fill="white"/>
</svg>
