<svg width="20" height="20" viewBox="0 0 20 20" fill="none" xmlns="http://www.w3.org/2000/svg">
<g clip-path="url(#clip0_554_3593)">
<rect width="20" height="20" rx="10" fill="#DDDDDD"/>
<path d="M10 11.3333C10.383 11.3333 10.7623 11.2579 11.1162 11.1113C11.47 10.9647 11.7916 10.7499 12.0624 10.4791C12.3332 10.2082 12.5481 9.88669 12.6946 9.53283C12.8412 9.17896 12.9167 8.79969 12.9167 8.41667C12.9167 8.03364 12.8412 7.65437 12.6946 7.30051C12.5481 6.94664 12.3332 6.62511 12.0624 6.35427C11.7916 6.08343 11.47 5.86859 11.1162 5.72202C10.7623 5.57544 10.383 5.5 10 5.5C9.22645 5.5 8.48459 5.80729 7.93761 6.35427C7.39062 6.90125 7.08333 7.64312 7.08333 8.41667C7.08333 9.19021 7.39062 9.93208 7.93761 10.4791C8.48459 11.026 9.22645 11.3333 10 11.3333ZM2.5 20V20.5H17.5V20C17.5 18.1333 17.5 17.2 17.1367 16.4867C16.8171 15.8595 16.3072 15.3496 15.68 15.03C14.9667 14.6667 14.0333 14.6667 12.1667 14.6667H7.83333C5.96667 14.6667 5.03333 14.6667 4.32 15.03C3.69282 15.3496 3.18291 15.8595 2.86333 16.4867C2.5 17.2 2.5 18.1333 2.5 20Z" fill="#00408E" stroke="#00408E" stroke-width="2" stroke-linecap="round" stroke-linejoin="round"/>
</g>
<defs>
<clipPath id="clip0_554_3593">
<rect width="20" height="20" rx="10" fill="white"/>
</clipPath>
</defs>
</svg>
